<svg xmlns="http://www.w3.org/2000/svg" width="199" height="80" viewBox="0 0 199 80">
  <defs>
    <style>
      .cls-1 {
        fill: none;
      }

      .cls-2 {
        fill: #999;
      }
    </style>
  </defs>
  <g id="google" transform="translate(4295 -11783)">
    <rect id="Rectangle_15565" data-name="Rectangle 15565" class="cls-1" width="199" height="80" transform="translate(-4295 11783)"/>
    <g id="google-2" data-name="google" transform="translate(-4256 11804)">
      <path id="path2998" class="cls-2" d="M29.992,14.124H15.759v4.225H25.852c-.5,5.921-5.427,8.45-10.08,8.45A11.1,11.1,0,0,1,4.629,15.554,11.02,11.02,0,0,1,15.787,4.234,10.946,10.946,0,0,1,23.4,7.285l2.956-3.06A15.025,15.025,0,0,0,15.635,0,15.773,15.773,0,0,0,0,15.478,15.621,15.621,0,0,0,15.858,31.032c8.307,0,14.39-5.688,14.39-14.1a12.658,12.658,0,0,0-.257-2.8h0Z" transform="translate(0)"/>
      <path id="path3000" class="cls-2" d="M76.567,23.29a9.973,9.973,0,1,0,10,10.008,9.856,9.856,0,0,0-10-10.008h0Zm.057,3.916a5.736,5.736,0,0,1,5.593,6.064,5.665,5.665,0,1,1-11.3-.029,5.713,5.713,0,0,1,5.708-6.035Z" transform="translate(-34.918 -12.222)"/>
      <path id="path3005" class="cls-2" d="M122.457,23.29a9.973,9.973,0,1,0,10,10.008,9.856,9.856,0,0,0-10-10.008h0Zm.057,3.916a5.736,5.736,0,0,1,5.593,6.064,5.665,5.665,0,1,1-11.3-.029,5.713,5.713,0,0,1,5.707-6.035Z" transform="translate(-59 -12.222)"/>
      <path id="path3007" class="cls-2" d="M167.966,23.31a9.986,9.986,0,0,0-.1,19.95,6.585,6.585,0,0,0,5.47-2.424V42.8c0,3.441-2.091,5.5-5.242,5.5a5.407,5.407,0,0,1-5.1-3.55l-3.835,1.6a9.6,9.6,0,0,0,8.972,5.874c5.332,0,9.391-3.355,9.391-10.4V23.909h-4.182V25.6a7.056,7.056,0,0,0-5.38-2.291h0Zm.39,3.911c2.628,0,5.327,2.243,5.327,6.078s-2.695,6.045-5.384,6.045a5.667,5.667,0,0,1-5.517-6.007,5.838,5.838,0,0,1,5.574-6.116Z" transform="translate(-83.118 -12.232)"/>
      <path id="path3011" class="cls-2" d="M227.505,23.26c-5.056,0-9.3,4.025-9.3,9.961a9.646,9.646,0,0,0,9.79,10.008,10.118,10.118,0,0,0,8.354-4.377l-3.445-2.3a5.582,5.582,0,0,1-4.885,2.747,5.127,5.127,0,0,1-4.89-3.022L236.5,30.731l-.694-1.625a9.032,9.032,0,0,0-8.293-5.845h0Zm.176,3.835a3.988,3.988,0,0,1,3.693,2.129l-8.93,3.731a5.541,5.541,0,0,1,5.242-5.864h0Z" transform="translate(-114.505 -12.206)"/>
      <path id="path3015" class="cls-2" d="M204.78,31.568h4.391V2.17H204.78Z" transform="translate(-107.463 -1.139)"/>
    </g>
  </g>
</svg>
