<svg xmlns="http://www.w3.org/2000/svg" width="199" height="80" viewBox="0 0 199 80">
  <defs>
    <style>
      .cls-1 {
        fill: rgba(255,255,255,0);
      }

      .cls-2 {
        fill: #999;
        stroke: rgba(0,0,0,0);
        stroke-miterlimit: 10;
      }
    </style>
  </defs>
  <g id="Group_8003" data-name="Group 8003" transform="translate(-692 -2116.125)">
    <rect id="Rectangle_3132" data-name="Rectangle 3132" class="cls-1" width="199" height="80" transform="translate(692 2116.125)"/>
    <path id="Union_26" data-name="Union 26" class="cls-2" d="M70.584,34.67Q68.3,30.6,66,26.547c-.066-.116-.137-.229-.23-.385-.1.163-.173.283-.241.407q-2.233,4.074-4.462,8.152a.438.438,0,0,1-.441.278q-3.9-.01-7.806-.006H50.343c-.089,0-.177-.01-.31-.018.076-.145.134-.263.2-.377Q55.2,25.968,60.18,17.344a.723.723,0,0,0,0-.848Q55.435,8.386,50.712.261C50.661.173,50.606.087,50.554,0H61.826a1.766,1.766,0,0,0,.091.247q1.919,3.524,3.843,7.046c.041.075.092.145.162.255.079-.124.141-.213.193-.308q.836-1.511,1.669-3.024Q68.941,2.109,70.092,0H80.954q-2.021,3.533-4.042,7.066-2.707,4.724-5.424,9.443a.523.523,0,0,0,.007.611q5.117,8.74,10.219,17.488c.061.105.119.213.2.363-.158.008-.277.02-.395.02H78.908q-3.885,0-7.77.007h0A.55.55,0,0,1,70.584,34.67ZM0,0H21.178c.051.878.095,1.757.154,2.635.1,1.453.209,2.906.312,4.359.059.833.114,1.666.174,2.541H9.976v4.6h.439c2.937,0,5.874,0,8.81-.007.322,0,.426.075.425.41q-.02,4.339,0,8.677c0,.336-.106.413-.428.412-2.925-.011-5.851-.006-8.776-.006H9.938V34.9H.408c-.136,0-.272.011-.408.017ZM36.848,34.587a15.752,15.752,0,0,1-9.109-3.663,16.645,16.645,0,0,1-5.963-9.581A17.173,17.173,0,0,1,31.36,1.823,15.056,15.056,0,0,1,37.438.371c5.946-.006,10.114,1.966,13.47,5.7a16.139,16.139,0,0,1,3.971,7.9A17.179,17.179,0,0,1,44.162,33.642a15.858,15.858,0,0,1-5.733,1.006Q37.642,34.648,36.848,34.587ZM38.413,7.379a2.94,2.94,0,0,0-2.965,2.847q-.017,7.183,0,14.366a2.964,2.964,0,0,0,3.287,2.782,2.892,2.892,0,0,0,2.609-2.969c.006-2.338,0-4.676,0-7.014h0c0-2.394.012-4.789,0-7.183a2.891,2.891,0,0,0-2.924-2.83Z" transform="translate(750.542 2138.625)"/>
  </g>
</svg>
