<svg xmlns="http://www.w3.org/2000/svg" xmlns:xlink="http://www.w3.org/1999/xlink" width="199" height="80" viewBox="0 0 199 80">
  <defs>
    <style>
      .cls-1 {
        fill: #999;
      }

      .cls-2 {
        fill: rgba(255,255,255,0);
      }

      .cls-3 {
        clip-path: url(#clip-path);
      }
    </style>
    <clipPath id="clip-path">
      <rect id="Rectangle_3176" data-name="Rectangle 3176" class="cls-1" width="54.235" height="60"/>
    </clipPath>
  </defs>
  <g id="Group_8005" data-name="Group 8005" transform="translate(-692 -2116.125)">
    <rect id="Rectangle_3132" data-name="Rectangle 3132" class="cls-2" width="199" height="80" transform="translate(692 2116.125)"/>
    <g id="Unilever" transform="translate(764 2126.125)">
      <g id="Group_8006" data-name="Group 8006">
        <g id="Group_8005-2" data-name="Group 8005" class="cls-3">
          <path id="Path_8663" data-name="Path 8663" class="cls-1" d="M6.986,100.342a9.771,9.771,0,0,1-.418-1.388,1.629,1.629,0,0,1,.887-1.881c.56-.156.779.125,1,.779a13.6,13.6,0,0,1,.217,4.169c-.123,2.552-1.4,5.633-4.573,5.569-2.739-.06-3.951-1.834-4.077-4.541a12.433,12.433,0,0,1,.56-4.356c.28-.966.53-1.31,1.4-1.495.684-.125.622.59.467,1.433a16.576,16.576,0,0,0-.373,4.884c.122,2.241,1.151,3.112,2.271,3.112,1.681.032,2.427-1.368,2.739-3.393A5.907,5.907,0,0,0,6.986,100.342Zm35.831,2.21c.654,0,.842.774.686,1.243a2,2,0,0,1-1.586,1.152C41.728,104.479,41.635,102.552,42.817,102.552Zm-12.164,1.055c0-.527-.282-.963-.621-.963-.283,0-.934.31-.934,1.306a1.932,1.932,0,0,0,.4,1.309A1.615,1.615,0,0,0,30.652,103.607Zm-9.68-6.347a.914.914,0,0,0-.965-.839,1.235,1.235,0,0,0-1.088,1.4.912.912,0,0,0,.935.935A1.321,1.321,0,0,0,20.973,97.26Zm5.061,1.828c-.054-.87-.265-1.263-.732-1.231-.62.037-.906,1.987-.779,4.037.081,1.337.28,1.543.465,1.53C25.33,103.4,26.152,101.014,26.033,99.088Zm20.643,3.276c-.386,1.6-1.555,3.953-3.3,3.953-.4,0-1.12-.157-1.12-.561,0-.436,2.74-.5,2.74-2.583a1.939,1.939,0,0,0-1.774-1.868c-1.4,0-2.766,1.526-2.766,3.642a2.227,2.227,0,0,0,2.361,2.52c2.055,0,3.3-1.682,3.952-3.081.313.934.5,3.081,1.277,3.081.31,0,.529-.156.9-.995.931-2.086,1.835-4.482,3.08-4.482.465,0,.187.842,1.306.842a.909.909,0,0,0,.9-.936c0-.716-.652-1.275-1.647-1.275-2.926,0-3.546,4.388-4.013,4.388-.778,0-.529-3.517-1.091-3.517C46.987,101.492,46.742,102.086,46.676,102.364ZM21.782,106.1a2.182,2.182,0,0,0,1.9-1.162,11.6,11.6,0,0,1-.654-3.012c-.186-3.017.977-5.854,2.249-5.933.933-.056,1.679.826,1.765,2.257a10.906,10.906,0,0,1-1.649,6.682,2.226,2.226,0,0,0,1.836,1.418,1.206,1.206,0,0,0,.78-.282,3.085,3.085,0,0,1-.126-.9c0-2.178,1.4-4.015,2.615-4.015.965,0,1.525,1.276,1.525,2.118,0,.994-.841,1.805-2.085,2.583a1.491,1.491,0,0,0,.965.374c1.775,0,2.7-2.148,3.392-4.109.124-.374.343-.9.778-.9.747,0,1.059,4.917,2.3,4.917.531,0,.966-1.09.966-1.928,0-.623-.218-.686-.218-1.588,0-.995.529-1.834,1.247-1.834.435,0,.592.434.592.962,0,1.992-1.433,5.7-3.547,5.7-1.59,0-1.466-2.739-2.025-2.739-.625,0-1.5,2.77-4.574,2.77a1.975,1.975,0,0,1-1.463-.748,3.58,3.58,0,0,1-2.086.717c-1.15,0-1.649-1.183-2.115-1.183-.561,0-1.182,1.214-3.051,1.214-1.493,0-1.743-1.99-2.27-1.99-.468,0-1.183,1.99-1.961,1.99-1.309,0-1.586-3.453-2.74-3.453-.9,0-3.753,3.507-4.527,3.427-.311-.032-.442-.265-.409-.576a21.96,21.96,0,0,1,.565-2.128c.252-.946.483-1.984.612-2.314a.826.826,0,0,1,.751-.546c.14.013.182.274.225.489.157.769.377,1.554.624,1.554.437,0,1.881-2.77,2.721-2.77,1.029,0,1.152,4.358,2.551,4.358.468,0,.811-.559,1.121-1.246.032-1.153.343-2.8,1.276-2.8.654,0,.966,1.461.5,2.739,0,1.524.994,1.9,1.649,1.9" transform="translate(-0.001 -47.591)"/>
        </g>
      </g>
      <path id="Path_8664" data-name="Path 8664" class="cls-1" d="M85.083,17.468a.716.716,0,0,1-.744-.363c-.149-.3-.1-.777-.38-.991a2.878,2.878,0,0,0,.809.082c.744,0,1.455-.512,2-.512a.428.428,0,0,1,.475.462C87.245,16.874,85.778,17.468,85.083,17.468Zm.363,1.866c1.716,0,3.287-1.37,3.287-2.575a1.006,1.006,0,0,0-.942-1.107.726.726,0,0,1,.165.528c0,.909-1.384,1.916-2.889,1.916a.631.631,0,0,0-.711.577C84.356,19.137,84.8,19.334,85.446,19.334Zm-.132.694c.215,1.568,2.592,3.682,3.235,3.632.431-.036.6-2.048.6-3.632,0-.908.05-1.618-.43-1.784a3.773,3.773,0,0,1-3.4,1.784" transform="translate(-41.627 -7.76)"/>
      <path id="Path_8665" data-name="Path 8665" class="cls-1" d="M11.57,41.211c.561,0,.445-3.435,1.353-3.435.215,0,.281.215.281.479,0,.776-.38,1.916-.38,2.543,0,.314.083.413.231.413.4,0,1.09-3.782,1.767-3.782.215,0,.314.215.314.43,0,.793-1.006,3.071-1.006,3.715,0,.1.032.182.115.182.413,0,1.238-1.783,1.5-2.674.149-.463.347-.711.529-.711.165,0,.314.182.314.562a13.981,13.981,0,0,1-1.553,4.393A11.06,11.06,0,0,0,13.6,46.857a1.751,1.751,0,0,0,.726,1.47c-1.057-.066-1.486-.165-1.882-.99-1.767,3.517,3.253,3.17,1.535,6.29-.314-.56-2.79-1.138-2.79-4.408,0-2.824,2.476-4.475,2.476-5.647a.753.753,0,0,0-.3-.611c-.546-.463-.562-.842-.991-.842-.313,0-.694.726-.3,1.37.133.215.248.347.248.545,0,.462-.727,1.7-1.238,1.7s-.908-1.27-.908-3.318c0-1.817.412-3.649.924-3.649.148,0,.2.1.2.231,0,.215-.066.643-.066,1.37,0,.776.182.843.33.843" transform="translate(-5.049 -18.557)"/>
      <path id="Path_8666" data-name="Path 8666" class="cls-1" d="M20.4,46.634c.694,0,1.272-.513,1.272-1.65V43.3a2.888,2.888,0,0,1,.479-1.883,2.954,2.954,0,0,0-.05.661c0,1.42.792,2.395.792,3.765,0,.511-.149.793-.544.793-.38,0-.347-.347-.43-.347-.066,0-.165.214-.165.446a.893.893,0,0,0,.941.891,1.133,1.133,0,0,0,1.073-1.156c0-1.485-1.156-3.137-1.156-4.722a3.711,3.711,0,0,1,.33-1.52c0,3.286,2.79,5.68,2.79,7.05a.551.551,0,0,1-.578.562.539.539,0,0,1-.562-.529c0-.115-.017-.148-.066-.148a.846.846,0,0,0-.4.76,1.236,1.236,0,0,0,1.271,1.206,1.463,1.463,0,0,0,1.453-1.5c0-1.733-3.385-4.359-3.385-7.165a3.877,3.877,0,0,1,.43-1.849,5.677,5.677,0,0,0-2.856,4.9c0,1.42-.049,2.129-.776,2.129-.38,0-.479-.346-.612-.346-.1,0-.149.3-.149.379a.906.906,0,0,0,.892.957" transform="translate(-9.674 -19.143)"/>
      <path id="Path_8667" data-name="Path 8667" class="cls-1" d="M70.8,17.033a7.423,7.423,0,0,0,2.344-.513.9.9,0,0,1,.429-.114c.579,0,.43.66.959.66.412,0,.942-.347,1.256-.347.492,0,1.2,1.552,1.2,2.279,0,.842-1.269,1.354-2.773,1.354A3.526,3.526,0,0,1,70.7,17.2.176.176,0,0,1,70.8,17.033Zm3.6,2.1c.727,0,1.272-.33,1.272-.529,0-.065-.1-.115-.314-.115a9.032,9.032,0,0,1-1.454-.149c-.695-.115-1.223-.38-1.421-.38-.066,0-.1.033-.1.082,0,.43.794,1.09,2.017,1.09" transform="translate(-35.053 -8.134)"/>
      <path id="Path_8668" data-name="Path 8668" class="cls-1" d="M20.574,66.3a2.4,2.4,0,0,0-1.42,2.346,4.6,4.6,0,0,0,4.59,4.111,2.688,2.688,0,0,0,3.005-2.792c0-2.493-1.535-4.243-3.532-4.243a1.992,1.992,0,0,0-2.065,1.964,2.733,2.733,0,0,0,2.79,2.725,1.392,1.392,0,0,0,1.469-1.419,1.827,1.827,0,0,0-1.668-1.767.484.484,0,0,0-.511.511c0,.4.544.793,1.222.793a.884.884,0,0,0,.364-.067.406.406,0,0,1,.049.2c0,.38-.364.612-.925.612a1.616,1.616,0,0,1-1.651-1.62c0-.593.512-1.022,1.255-1.022a2.455,2.455,0,0,1,2.344,2.609c0,1.171-.643,1.849-1.964,1.849-2.642,0-3.929-2.379-3.351-4.79" transform="translate(-9.497 -32.585)"/>
      <path id="Path_8669" data-name="Path 8669" class="cls-1" d="M44.715,80a7.775,7.775,0,0,0,1-.066c.247,0,.264.149.264.248,0,.364-.81.809-2.246.809a1.458,1.458,0,0,1-1.5-.941,6.508,6.508,0,0,1-3.319,1.007c-3.384,0-4.243-1.471-5.3-1.948-.809-.364-2.048.347-3.782-1.585a4.141,4.141,0,0,0,.793.066c1.518,0,2.327-.742,2.327-1.932a4.272,4.272,0,0,0-.033-.461,3.277,3.277,0,0,1,1.768,2.376c.032.165.709.314,1.138.314a1.344,1.344,0,0,0,1.47-1.221,3.712,3.712,0,0,0,3.6-2.825,3.916,3.916,0,0,1,1.716,1.207,2.983,2.983,0,0,1,.99-.149,6.35,6.35,0,0,1,1.833.314c.033-.215.066-.479.4-.479.5,0,.363.545.528.857.083.165.5.264.5.595a.424.424,0,0,1-.431.431.729.729,0,0,1-.2-.033c-.33.115-.347,2.492-1.733,2.492a2.781,2.781,0,0,1-2.378-1.9.707.707,0,0,0-.594-.512c-.264,0-.412.05-.726.4a5.741,5.741,0,0,1-4.211,1.815c-.562,0-1.007-.05-1.123-.05-.067,0-.067.017-.067.033,0,.116.561.562,1.783.562,2.906,0,3.617-1.635,4.078-1.635a.383.383,0,0,1,.379.265A3.244,3.244,0,0,0,44.715,80Zm-1.28-3.3a.661.661,0,1,0,.661-.662.663.663,0,0,0-.661.662" transform="translate(-14.789 -36.612)"/>
      <path id="Path_8670" data-name="Path 8670" class="cls-1" d="M77.02,62.486c-.231,0-.479.182-.479.629a1.045,1.045,0,0,0,.594.907,1.014,1.014,0,0,0,.478.133c.479,0,.86-.133.86-.53C78.473,63.115,77.729,62.486,77.02,62.486Zm-1.781,1.023c-.347,0-2.265,2.559-3.5,2.559-.3,0-.545-.561-.545-.989,0-.231.148-.4.678-.513,2.839-.644,2.211-2.775,4.636-2.775a2.771,2.771,0,0,1,2.826,2.956c0,2.18-3.1,4.887-3.565,4.887-.38,0-.793-.545-.793-.908,0-.115.05-.264.38-.4a3.857,3.857,0,0,0,2.49-2.825.293.293,0,0,0-.3-.329c-.28,0-1.482,2.74-2.822,2.74-.926,0-1.868-.84-1.868-1.237,0-.662,2.678-1.882,2.678-2.808,0-.347-.165-.363-.3-.363" transform="translate(-35.297 -30.636)"/>
      <path id="Path_8671" data-name="Path 8671" class="cls-1" d="M11.987,19a1.981,1.981,0,0,1-1.073.363A1.241,1.241,0,0,1,9.643,18.1a1.392,1.392,0,0,1,.875-1.3,1.641,1.641,0,0,0-.016.281A1.922,1.922,0,0,0,11.987,19Zm3.533,3.17a3.136,3.136,0,0,0-.743,1.9,1.483,1.483,0,0,0,1.388,1.634,1.249,1.249,0,0,0,1.189-1.4A2.439,2.439,0,0,0,15.52,22.175Zm-5.481.66a.323.323,0,0,0,.263.5c.132,0,.215-.033.281-.033.4,0,.842.28,1.486.28a3.151,3.151,0,0,0,1.387-.4,3.446,3.446,0,0,0,1.652-2.312c0-.314-.252-.273-.463-.562s-.13-.543-.264-.677c-.076-.077-.313-.082-.611-.115-.1-.011-.231-.017-.364-.017a3.348,3.348,0,0,0-1.915.529C10.059,20.942,10.27,22.455,10.039,22.835Zm3.88-2.048c.114.156.43.347.43.463,0,.23-.133.528-.4.528-.578,0-1.04-.875-1.04-1.371,0-.313.182-.346.429-.346a.4.4,0,0,1,.248.066C13.737,20.21,13.737,20.539,13.919,20.787ZM12.4,22.8a1.363,1.363,0,0,1-1.139-1.288c0-.33.248-.743.429-.743.066,0,.1.05.115.166a1.878,1.878,0,0,0,1.123,1.5c.049.033.083.049.083.082C13.011,22.636,12.7,22.8,12.4,22.8Zm1.4-4.161a3.253,3.253,0,0,0,.148-.958c0-.792-.364-2-1.486-2a1.1,1.1,0,0,0-1.107,1.123C11.359,18.113,12.664,18.641,13.8,18.641Zm-4.277,6.6c0,1.254.38,1.849,1.057,1.849a3.7,3.7,0,0,0,2.08-1.107,7.319,7.319,0,0,1-1.585.248A1.736,1.736,0,0,1,9.527,25.245Zm.578-1.47a1.282,1.282,0,0,0-.016.248c0,.776.412,1.206.957,1.206a1.775,1.775,0,0,0,1.319-.793,3.475,3.475,0,0,1-.594.049A1.977,1.977,0,0,1,10.105,23.775Zm4.045-.231a1.57,1.57,0,0,0-1.173,1.387.973.973,0,0,0,1.04.975,1.078,1.078,0,0,0,.644-.165,1.924,1.924,0,0,1-.627-1.436A2.207,2.207,0,0,1,14.151,23.544Zm.594-4.524a.661.661,0,1,0,.66-.661A.663.663,0,0,0,14.744,19.02Zm.858,1.486a.661.661,0,1,0,.662-.66.664.664,0,0,0-.662.66" transform="translate(-4.723 -7.777)"/>
      <path id="Path_8672" data-name="Path 8672" class="cls-1" d="M66.416,33.289a.635.635,0,0,1,1.269,0,.634.634,0,1,1-1.269,0Zm-5.8-5.085a.661.661,0,1,0,.66-.66A.663.663,0,0,0,60.619,28.2Zm-.561,2.328A.941.941,0,1,0,61,29.59.95.95,0,0,0,60.058,30.532Zm2.081-1.057a1.007,1.007,0,1,0,1-1.007A1,1,0,0,0,62.139,29.475Zm.083-2.146a.626.626,0,1,0,.624-.627A.627.627,0,0,0,62.222,27.328Zm2.987-1.584a.628.628,0,1,0,.628-.628A.627.627,0,0,0,65.209,25.744ZM63.97,27.775a1.058,1.058,0,1,0,1.057-1.057A1.064,1.064,0,0,0,63.97,27.775Zm-1.7,3.863a.66.66,0,1,0,.658-.661A.661.661,0,0,0,62.271,31.638Zm2.162-1.322a.661.661,0,1,0,.662-.66A.663.663,0,0,0,64.433,30.317Zm-.611,2.328a1.141,1.141,0,1,0,1.14-1.139A1.142,1.142,0,0,0,63.822,32.645Zm2.379-1.4a.775.775,0,1,0,.774-.775A.775.775,0,0,0,66.2,31.241Zm-.049-2.08a.693.693,0,1,0,.69-.693.7.7,0,0,0-.69.693" transform="translate(-29.777 -12.452)"/>
      <path id="Path_8673" data-name="Path 8673" class="cls-1" d="M69.62,74.336a4.863,4.863,0,0,1-3.1,1.072,4.076,4.076,0,0,1-1.421-.281c-.165,0-.347.165-.529.38a3.725,3.725,0,0,0-.905,2.262,1.353,1.353,0,0,0,1.467,1.319c3.091,0,5.4-1.931,5.4-3.5C70.529,74.7,70,74.336,69.62,74.336Zm-.859-.182a.6.6,0,0,0,.165-.479V73.3c0-.479-.724-.759-1.715-.759-1.207,0-1.851.544-1.851.775v.759c0,.315.728.628,1.62.628A2.756,2.756,0,0,0,68.761,74.155Zm-.133,1.635c.083,0,.182.049.182.347a1.447,1.447,0,0,1-.756,1.22,3.171,3.171,0,0,1-1.8.528,3.882,3.882,0,0,0,.231-1.2,3.185,3.185,0,0,0-.033-.38h.215a3.723,3.723,0,0,0,1.962-.512" transform="translate(-31.564 -35.964)"/>
      <path id="Path_8674" data-name="Path 8674" class="cls-1" d="M59.95,38.97c.182,1.4,2.066.693,2.066,2.393,0,.248-.066.612-.066.925,0,.364.032.677.311.677s.347-.2.347-.462-.067-.594-.067-.776a.639.639,0,0,1,.662-.71c.628,0,1.107.644,2.049.644-.215,1.057-2.4.776-2.4,1.932,0,.578.578.709.958.709.347,0,.463-.049.463-.346,0-.166-.033-.347-.033-.463a.131.131,0,0,1,.133-.133c.365,0,2.144,1.354,2.144,1.768,0,.379-1.88.759-2.425.759a.176.176,0,0,1-.2-.182c0-.115.281-.462.281-.66,0-.149-.248-.248-.909-.248-.314,0-.546.033-.546.281,0,.445.727.99.727,1.4,0,.331-.2.529-.727.529-.446,0-1.121-.347-1.121-.925,0-.462.476-.924.476-1.205a.23.23,0,0,0-.261-.215c-.612,0-.777,1.617-2.941,1.8a1.658,1.658,0,0,0,.643-1.369c0-.347-.082-.628-.082-1.007,0-.5.23-.744.561-.744.611,0,.908.858,1.306.858a.477.477,0,0,0,.446-.495c0-1.255-2.412-1.073-2.412-2.84A4.1,4.1,0,0,1,59.95,38.97Zm7.876,4.838c0,.412.133.891.546.891.347,0,.644-.527.644-1.106,0-.661-.115-1.173-.115-1.437,0-.115.05-.164.115-.164.248.017.479.693.744.693.3,0,.741-.546.922-.546.05,0,.066.067.066.083,0,.248-.38.794-.38,1.008,0,.182.958.214.958.38,0,.248-1,.248-1.483.463-.462.2-.745.445-.745.776s.331.4.794.4a6.563,6.563,0,0,0,2.127-.594.077.077,0,0,1,.082.082c0,.165-.561.71-.561.958,0,.28,1.025.61,1.008.775-.016.049-.083.066-.2.066-.183,0-.463-.049-.678-.049a.381.381,0,0,0-.3.082c-.114.133.033,1.008-.2,1.008s-.777-1.948-2.046-1.948c-.182,0-.314.149-.314.4A2.486,2.486,0,0,0,70.073,47.8c.277.182.74.364.74.463,0,.2-1.054.016-1.054.346,0,.3.132.744.132,1.007,0,.083-.017.181-.115.181-.2,0-.678-.908-.909-.908-.2,0-.628.545-.81.545a.092.092,0,0,1-.082-.1c0-.38.612-1.238.612-2.081,0-.4-.05-1.255-.529-1.255-.4,0-.843.627-1.041,1.255-.115.363-.033,1.767-.3,1.767-.248,0-.182-.941-.513-.941-.244,0-.772.445-.954.445-.033,0-.067-.017-.067-.049,0-.2.479-.842.479-.974,0-.248-1.091-.28-1.091-.478,0-.116.43-.2.826-.265.84-.149,2.079-.759,2.079-1.617,0-.957-.925-1.371-1.533-1.767-.314-.2-.661-.363-.661-.495s.4-.133.562-.133c.248,0,.493-.017.493-.214,0-.149-.033-.446-.033-.677,0-.165.016-.3.083-.3.248,0,.594.809.76.809.264,0,.627-.661.876-.661.082,0,.115.05.115.2,0,.611-.314,1.3-.314,1.9" transform="translate(-29.191 -19.321)"/>
      <path id="Path_8675" data-name="Path 8675" class="cls-1" d="M56.972,56.417c.76.1.942.363.942.578,0,.364-.331.478-.645.478-.23,0-.5-.049-.776-.049a1.25,1.25,0,0,0-1.024.43.565.565,0,0,1,.528.513c0,.957-2.658.164-2.658,2.625a3.15,3.15,0,0,0,3.4,2.725c1.058,0,1.735-.347,1.735-.744,0-.313-.561-.1-.561-.364,0-.115.2-.331.2-.513,0-.08-.066-.229-.2-.229a6.614,6.614,0,0,1-2,.477c-.892,0-1.767-.51-1.767-1.2,0-.148.067-.231.165-.231s.231.067.347.067c.1,0,.115-.067.115-.248s0-.694.313-.694.909,1.156,3.189,1.156a5.184,5.184,0,0,0,2.773-.644,4.292,4.292,0,0,1-4.409,4.211A4.659,4.659,0,0,1,51.9,60a4.861,4.861,0,0,1,4.888-4.82c.726,0,1.338.247,1.338.561C58.128,56.17,57.054,55.906,56.972,56.417Zm5.07.876a.981.981,0,0,1,.165.527c0,.463-.314.892-.314,1.371a.985.985,0,0,0,1.038.99,1.142,1.142,0,0,0,1.14-1.188C64.071,58.118,63.278,57.375,62.042,57.293Zm-5.467,1.056a.666.666,0,0,1,.215.5c0,.248-.115.512-.115.793a.726.726,0,0,0,.726.742.77.77,0,0,0,.778-.792A1.45,1.45,0,0,0,56.575,58.349Zm2.195-2.807A3.054,3.054,0,0,1,61.447,58.4a1.494,1.494,0,0,1-1.454,1.617,1.4,1.4,0,0,1-1.451-1.5c0-.693.542-1.42.542-2.13A1.279,1.279,0,0,0,58.77,55.542Zm.859,2.2a.4.4,0,0,0,.4.413.455.455,0,0,0,.43-.5c0-.346-.314-.825-.612-.825-.133,0-.083.2-.115.413-.017.164-.1.363-.1.5" transform="translate(-25.733 -27.358)"/>
      <path id="Path_8676" data-name="Path 8676" class="cls-1" d="M28.4,22.076c.561,0,1.2-3.038,1.2-3.551,0-.132-.049-.231-.164-.231-.512,0-1.222,2.89-1.222,3.534C28.215,21.944,28.247,22.076,28.4,22.076Zm4.045.908c.412,0,.874-1.586.874-2.576,0-.215-.033-.445-.133-.445-.347,0-.925,1.635-.925,2.526C32.259,22.836,32.343,22.985,32.442,22.985Zm-2.693-1.47c.182,0,.413-.2.844-.677a4.317,4.317,0,0,0,.032-.661c0-.33-.132-.693-.33-.693-.5,0-.743,1.321-.743,1.668C29.552,21.349,29.651,21.515,29.749,21.515Zm2.263-.677c0-.281-.067-.347-.132-.347-.165,0-.346.2-.611.644.033.594.132.859.3.859C31.748,21.994,32.012,21.415,32.012,20.838Zm1.272-1.949c1.09,0,1.585.941,1.585,2,0,.462-.131,1.139-.346,1.139s-.182-.38-.215-.727c-.033-.446-.116-.545-.265-.545-.281,0-.462.66-.462,1.272,0,.379.066.809.363.809a.6.6,0,0,0,.413-.182,1.478,1.478,0,0,1-1.42,1.42c-1.453,0-2-1.7-2.163-2.692a4.01,4.01,0,0,1-3.138,1.6,1.858,1.858,0,0,1-1.964-1.932c0-.281.1-1.007.446-1.007.412,0,.049,1.353.858,1.353.2,0,.561-.165.76-.709a3.062,3.062,0,0,0,.182-.975c0-.446-.1-.726-.429-.726a1.3,1.3,0,0,0-.744.33,2.488,2.488,0,0,1,2.41-1.8c1.306,0,2,1.156,2,2.444a3.207,3.207,0,0,1-.05.561,2.877,2.877,0,0,1,2.18-1.635" transform="translate(-12.728 -8.686)"/>
      <path id="Path_8677" data-name="Path 8677" class="cls-1" d="M29.661,29.045c-.71,0-.743.86-.743,2.593-.529-1.139-1.4-2.361-2.427-2.361-.693,0-.957.463-.957,1.271a3.054,3.054,0,0,0,.049.561.626.626,0,0,1,.677-.4A3.012,3.012,0,0,1,28.39,32a10.977,10.977,0,0,0-1.8-.231,2.075,2.075,0,0,0-.875.149,2.2,2.2,0,0,0-1.123,2,3.3,3.3,0,0,0,.05.545,3.555,3.555,0,0,1,3.1-1.866,3.128,3.128,0,0,1,.462.033,2.691,2.691,0,0,0-.661,1.816c-.016.264-.115.281-.3.281,0,.544.43,1.354.43,1.766a.35.35,0,0,1-.165.314c0,.727.726,1.255.726,1.717a.386.386,0,0,1-.083.265c.05.3.849.8.952,1.048.127.3.27.356.352.356.281,0,.726-.331.726-.628a.394.394,0,0,0-.148-.264,2.433,2.433,0,0,1-.612-1.056A.309.309,0,0,1,29.112,38c-.09-.342-.095-.979-.227-1.359-.215-.049-.314-.132-.314-.578,0-.215.133-1.057.133-1.355a.234.234,0,0,1-.231-.264c0-.528.529-.941.677-1.617a2.429,2.429,0,0,1,1.172,2.031,4.334,4.334,0,0,1-.115.941c.694-.347,1.734-.859,1.734-1.9,0-.612-.281-1.288-2.147-1.552a5.837,5.837,0,0,1,1.915-.33c1.057,0,1.668.33,1.8,1.072a2.058,2.058,0,0,0,.38-1.056A1.4,1.4,0,0,0,32.352,30.7,5.269,5.269,0,0,0,29.5,31.869c.431-.891.726-1.42,1.255-1.42a1.269,1.269,0,0,1,.248.033c-.2-.726-.941-1.437-1.338-1.437" transform="translate(-12.193 -14.4)"/>
      <path id="Path_8678" data-name="Path 8678" class="cls-1" d="M86.865,52.657c.827,0,1.487,1.073,1.487,2.328a5.19,5.19,0,0,1-1.748,3.78c-.017-2.229-2.744-1.519-2.744-3.136a1.1,1.1,0,0,1,1.092-1.156,1.673,1.673,0,0,1,1.239.447,1.465,1.465,0,0,1-.446-1.057,1.122,1.122,0,0,1,1.12-1.206" transform="translate(-41.578 -26.107)"/>
      <path id="Path_8679" data-name="Path 8679" class="cls-1" d="M60.158,18.852a1.756,1.756,0,0,0,1.272.594c.183,0,.4-.049.514-.049.149,0,.247.066.247.181a1.039,1.039,0,0,1-.363.645,1.66,1.66,0,0,0,.644.115,1.943,1.943,0,0,0,2.012-2.08,2.2,2.2,0,0,1,.315,1.057,2.368,2.368,0,0,1-2.542,2.493,3.565,3.565,0,0,1-1.29-.265c-.313,0-.3.628-.511.612-.38-.066-.726-.908-.726-1.8A2.632,2.632,0,0,1,60.158,18.852Zm2.492-1.206a1.233,1.233,0,0,0-.856-.33,1.335,1.335,0,0,0-1.323.974,1.55,1.55,0,0,1-.115-.562,1.6,1.6,0,0,1,1.7-1.618,2.9,2.9,0,0,1,1.616.561c.165,0,.33-.165.463-.165.182,0,.182.281.182.479A2.707,2.707,0,0,1,63.279,19.2a1.684,1.684,0,0,0-.823-.793.261.261,0,0,1-.165-.248.665.665,0,0,1,.36-.512" transform="translate(-29.614 -7.988)"/>
      <path id="Path_8680" data-name="Path 8680" class="cls-1" d="M23.921,6.075c0,.578,2.064,3.4,2.461,3.4.331,0,.578-.578.578-1.074a.676.676,0,0,0-.1-.363A9.673,9.673,0,0,0,24,5.976.093.093,0,0,0,23.921,6.075Zm-12.136-1.7a3.153,3.153,0,0,1-1.7,1.436c-.165,0-.215-.2-.215-.379A1.469,1.469,0,0,1,10.2,4.49a1.844,1.844,0,0,1,1.089-.3C11.521,4.194,11.785,4.243,11.785,4.375Zm15.076.958c0-.991-2.679-2.791-2.709-3.566a.292.292,0,0,1,.1-.2c.459-.484,2.364-.837,2.364-1.249,0-.214-.4-.214-.595-.214C24.482.1,22.237.66,22.237,1.2c0,.562,2.014,1.933,2.014,2.61,0,.182-.115.248-.3.248-.561,0-1.783-.678-2.361-.678-.264,0-.364.182-.364.447,0,.792.941,2.295.941,2.739,0,.05-.017.116-.083.116-.3,0-1.7-1.65-2.2-1.65-.181,0-.2.247-.2.611v.561c0,.38-.017.611-.2.611-.431,0-.628-1.205-1.041-1.205-.43,0-.512,2.146-.924,2.146-.479,0-.067-2.361-.529-2.361-.512,0-1.09,1.569-1.454,1.569-.132,0-.164-.133-.164-.248,0-.478.28-1.254.28-1.716,0-.232-.066-.364-.263-.364-.513,0-1.635.825-2.064.825-.066,0-.149-.033-.149-.1,0-.4,1.8-1.651,1.8-2.212,0-.546-2.478-.182-2.478-.81,0-.528,1.768-1.073,1.768-1.618,0-.479-2.1-.693-2.906-.693-.975,0-1.5.114-1.5.4,0,.43,2.213.562,2.213.941,0,.364-2.3,1.338-2.3,1.9,0,.5,3.236.033,3.236.546,0,.561-2.823,2.987-2.823,3.8,0,.182.132.265.313.265.859,0,3.087-1.635,3.7-1.635.215,0,.231.264.231.5,0,.43-.148,1.09-.148,1.569,0,.379.1.643.429.643.612,0,1.172-1.04,1.586-1.04.528,0,.214,3.054,1.007,3.054.677,0,.957-3.3,1.387-3.3s.777.957,1.173.957c.495,0,.264-1.667.793-1.667.577,0,2.229,1.982,2.972,1.982.231,0,.313-.182.313-.413,0-.875-1.221-2.856-1.221-3.483,0-.165.049-.215.23-.215.644,0,2.527.891,3.418.891C26.68,5.712,26.861,5.547,26.861,5.333ZM25.143,2.063c0,.3,1.04.941,1.52.941.28,0,.363-.38.363-.776,0-.5-.214-.512-.644-.512C25.837,1.717,25.143,1.865,25.143,2.063ZM21.263.379c0-.1-.5-.2-1.172-.2-1.073,0-.925.893-1.75.893-.859,0-.645-.926-1.734-.926-.661,0-1.271.116-1.271.264,0,.2.775.116.775.662,0,.577-1.668.743-1.668,1.09,0,.115.132.165.3.165.364,0,.941-.165,1.354-.165.231,0,.446.049.446.264,0,.413-.892,1.156-.892,1.486,0,.1.082.133.165.133.331,0,.892-.843,1.42-.843.875,0,.3,1.866.776,1.866.5,0,.281-1.833.991-1.833.579,0,1.007,1.272,1.4,1.272a.187.187,0,0,0,.182-.2c0-.346-.5-1.057-.5-1.519,0-.281.2-.413.462-.413.379,0,.891.231,1.171.231.1,0,.2-.033.2-.148,0-.4-1.468-.825-1.468-1.337s.809-.512.809-.744" transform="translate(-4.852 -0.016)"/>
      <path id="Path_8681" data-name="Path 8681" class="cls-1" d="M84.228,3.087c0,1.469-1.07,2.592-3,2.905.215.016.413.016.612.016,2.26,0,3.087-1.023,3.087-1.881A1.05,1.05,0,0,0,84.228,3.087ZM81.439,4.754c0-1.172-2.8-1.47-2.8-1.733,0-.214,1.566-.578,2.375-.595-1.238-1.585-3-1.419-3-1.7a5.093,5.093,0,0,1,2.542-.5c1.024,0,1.981.231,1.981,1.007,0,.43-.347.876-.347,1.536a.61.61,0,0,0,.661.677c.513,0,.628-.545.628-1.123,0-.478-.082-.842-.082-1.073A1.1,1.1,0,0,1,84.542.1c.562,0,.694.247,1.521.247a1.261,1.261,0,0,0-.612.975A17.951,17.951,0,0,1,85.9,3.912c0,2.608-2.443,3.532-5.433,3.532a17.128,17.128,0,0,1-2.558-.2c-.132-.017-.165-.049-.165-.132,0-.215,1.174-.331,1.174-1.387a8.213,8.213,0,0,0-.133-.957.131.131,0,0,1,.133-.133c.248,0,.744.957,1.666.957A.786.786,0,0,0,81.439,4.754Zm2.69-3.648a.413.413,0,1,0,.413-.413.408.408,0,0,0-.413.413" transform="translate(-38.544 -0.049)"/>
      <path id="Path_8682" data-name="Path 8682" class="cls-1" d="M80.89,28.895c0-.346-.876-.379-.958-1.354-.017-.148-.067-.412-.249-.412-.3,0-.066.908-.4.908-.759,0-1.007-1.486-1.288-1.486-.067,0-.145.049-.145.248,0,.182.033.3.033.511s-.05.364-.248.364c-.446,0-.843-1.041-1.223-1.041a.15.15,0,0,0-.165.133c0,.2.33.561.33.743,0,.4-1.074.182-1.074.512,0,.149.148.2.347.2.347,0,.893-.148,1.174-.148.165,0,.413.033.413.247,0,.231-.595.528-.595.743a.166.166,0,0,0,.182.148c.446,0,1.236-.775,1.8-.775.1,0,.346.049.346.2,0,.214-.561.593-.561.908a.167.167,0,0,0,.149.182c.3,0,.692-.775,1.254-.775.215,0,.529.083.695.083C80.841,29.027,80.89,28.945,80.89,28.895Zm.43,8.008a10.038,10.038,0,0,1,1.136-2.3c-.541-.28-1.98-.875-1.98-1.849a2.555,2.555,0,0,1,1.715-2.031c.133,0,.165.116.165.331,0,.594-.281,1.551-.281,2.064,0,.462.3.909.562.909.281,0,1.057-.991,1.057-1.965a2.226,2.226,0,0,0-2.012-2.278,9.646,9.646,0,0,1-3.156.726c-3.549,0-4.359-3.516-4.359-5.052,0-.066.016-.083.032-.083a2.522,2.522,0,0,0,1.553.43c.578,0,1.107-.149,1.95-.149,1.978,0,2.854,1.371,4.077,3.121.74.462,2.508,1.206,2.508,3.3,0,1.849-1.966,2.873-2.442,4.854.756-.082,1.2-1.437,1.98-1.437.4,0,.578.314.578.81A3.594,3.594,0,0,1,83.2,38.8a1.124,1.124,0,0,0,.016-.248c0-.462-.181-1.122-.711-1.122-.822,0-1.087.891-1.549,1.634a7.89,7.89,0,0,0-2.279-4.128c-1.169-.941-3.186-.43-3.186-2.146,0-.463.3-1.123.3-1.651a.773.773,0,0,0-.133-.479c1.587.595,1.025,1.651,2,2.741.608.694,2.293,1.354,3.267,4.211a3.134,3.134,0,0,0,.033-.445c0-2.444-3.235-4.839-3.516-5.83,1.879.215,2.209.678,3.1,3.154A10.255,10.255,0,0,1,81.32,36.9" transform="translate(-36.772 -12.582)"/>
      <path id="Path_8683" data-name="Path 8683" class="cls-1" d="M64.966,6.852c-1.157,0-1.917-.577-1.917-.875a.23.23,0,0,1,.232-.247c.363,0,1.156.561,1.42.561.067,0,.116-.032.116-.132,0-.3-.281-.793-.281-1.04,0-.067.05-.115.149-.115.446,0,1.107.182,1.455.182.115,0,.148-.066.148-.133,0-.363-1.074-1.073-1.074-1.288,0-.2,1.335-.5,1.335-.809,0-.331-1.815-.1-1.815-.413,0-.231.347-.627.347-.809,0-.083-.067-.115-.182-.115a13.022,13.022,0,0,1-1.273.314c-.165,0-.364-.033-.364-.265,0-.38.644-.792,1.653-.792C66.548.875,67.523,2,67.523,3.88A2.632,2.632,0,0,1,64.966,6.852ZM61.747,3.715c0-.182-.645-.528-.645-.727,0-.033.032-.049.082-.049.183,0,.5.066.745.066.215,0,.248-.925.41-.925.115,0,.313.875.5.875.214,0,.611-.248.776-.248.033,0,.066.016.066.05,0,.115-.413.561-.413.693,0,.149.926.331.926.463,0,.165-.942.149-.942.3,0,.114.347.577.347.726a.044.044,0,0,1-.05.05c-.133,0-.644-.232-.793-.232-.182,0-.476.677-.625.677-.049,0-.082-.066-.082-.149l-.033-.66A.117.117,0,0,0,61.9,4.49c-.2,0-.579-.017-.7-.017-.083,0-.115-.016-.115-.049C61.085,4.292,61.747,3.83,61.747,3.715Zm-.481,2.707c.265,0,.315.645.365,1.024.033.2.066.215.149.215.2,0,.512-.759.724-.759a6.43,6.43,0,0,0,2.561.875,3.762,3.762,0,0,0,3.88-3.88A3.674,3.674,0,0,0,64.933.1a12.135,12.135,0,0,0-2.347.545C62.325.66,61.929,0,61.73,0c-.082,0-.165.164-.165.445,0,.182,0,.759-.2.759-.4,0-1.932-1.138-1.932-.727,0,.38,1.023,1.536,1.023,1.833s-1.006.578-1.006.776c0,.363,1.073.429,1.073.892S59.4,4.8,59.4,5.151c0,.28,1.123.083,1.123.429s-.825,1.5-.825,1.832c0,.083.016.083.082.083.314,0,1.255-1.074,1.487-1.074" transform="translate(-29.45)"/>
      <path id="Path_8684" data-name="Path 8684" class="cls-1" d="M43.088,69.042a.757.757,0,0,1-.182.478,1.215,1.215,0,0,0-.925-.495c-1.7,0-1.057,2.461-2.873,2.461a8.59,8.59,0,0,1-1.106-.1c-.116,0-.182.05-.182.149,0,.43.611,1.486,2.312,1.486s3.336-1.04,3.336-2.329a1.722,1.722,0,0,0-.149-.676.484.484,0,0,1,.38-.165c.264,0,.412.3.66.3a.452.452,0,0,0,.463-.463.5.5,0,0,0-.313-.464.568.568,0,0,0,.231-.445.524.524,0,0,0-.529-.545.473.473,0,0,0-.363.163c-.032-.3-.2-.576-.512-.576a.426.426,0,0,0-.43.463c0,.262.182.478.182.758" transform="translate(-18.752 -33.626)"/>
      <path id="Path_8685" data-name="Path 8685" class="cls-1" d="M29.137,62.658c1.321.328,1.982,1.039,2.113,1.881a3.667,3.667,0,0,0,.611,1.8,2.853,2.853,0,0,0,1.933.874c.594,0,1.072-.2,1.072-.742a2.265,2.265,0,0,0-2-1.932c-.115,0-.264.017-.43.017a.789.789,0,0,1-.5-.149c-.264-.232-.347-1.47-.842-2.213a2.077,2.077,0,0,0-1.948-1.057c-.577,0-1.222.313-1.222.776C27.931,62.2,28.08,62.393,29.137,62.658Zm4.607,3.7c-.5,0-1.239-.529-1.239-.827a.4.4,0,0,1,.412-.38c.413,0,1.156.513,1.156.942,0,.115-.082.265-.329.265" transform="translate(-13.848 -30.312)"/>
      <path id="Path_8686" data-name="Path 8686" class="cls-1" d="M36.169,42.243c0-1.057,2.51-1.618,2.51-2.923a2.16,2.16,0,0,0-.231-.875,2.657,2.657,0,0,1,1.519,1.948c0,1.139-1.188,1.668-1.188,2.378,0,.825,1.271.957,1.271,1.981,0,.842-1.206,1.816-1.206,2.906a1.649,1.649,0,0,0,1.5,1.651,3.813,3.813,0,0,1-.842.115,3.366,3.366,0,0,1-3.385-3.005,2.818,2.818,0,0,1,.874-2.03,2.36,2.36,0,0,0,1.223.66c.264,0,.38-.132.38-.33C38.6,44.108,36.169,43.548,36.169,42.243Zm5.267,8.338c-.566.259-.792.215-.792.793,0,.214-.05.494-.05.643,0,.2.033.314.264.314a2.113,2.113,0,0,0,1.536-1.866c0-.232-.133-.329-.281-.329C41.981,50.136,41.833,50.4,41.436,50.581Zm-.066-1.189c0-.743-1.536-.759-1.536-1.882a2.574,2.574,0,0,1,.545-1.272,1.791,1.791,0,0,0,1.239,1.586,2.114,2.114,0,0,1,1.667,2.246A3.371,3.371,0,0,1,39.571,53.4a3.76,3.76,0,0,1-3.683-3.534c0-.446.115-.941.4-.941.248,0,.33.2.528.4a3.437,3.437,0,0,0,2.725.941c1.057,0,1.833-.429,1.833-.875" transform="translate(-17.793 -19.061)"/>
      <path id="Path_8687" data-name="Path 8687" class="cls-1" d="M20.528,58.783a.628.628,0,1,1-.7-.553A.627.627,0,0,1,20.528,58.783Zm-3.086.649a1.078,1.078,0,0,0,1.189.925,1.358,1.358,0,0,0,.546-.165,1.016,1.016,0,0,0,1.174.789,1.047,1.047,0,0,0,.956-1.169,1.2,1.2,0,0,0-.1-.38s.08-.009.141-.02a1.1,1.1,0,0,0,.948-1.169,1.072,1.072,0,0,0-1.154-.967,1.039,1.039,0,0,0-.547.224,1.113,1.113,0,0,0-1.25-.82,1.067,1.067,0,0,0-.9,1.2,1.087,1.087,0,0,0,.083.33l-.164.024a1.112,1.112,0,0,0-.927,1.2" transform="translate(-8.644 -28.094)"/>
    </g>
  </g>
</svg>
