<svg xmlns="http://www.w3.org/2000/svg" width="199" height="80" viewBox="0 0 199 80"><defs><style>.a{fill:rgba(255,255,255,0);}.b{fill:#999;}</style></defs><g transform="translate(-474 -2116.125)"><rect class="a" width="199" height="80" transform="translate(474 2116.125)"/><path class="b" d="M10.982,53.365l-.179-.354C10.089,51.557,9.535,50.4,6.91,50.1l-4.25-.5V48.384H12.875l.036.107a34.069,34.069,0,0,0,64.214.018l.036-.106H87.411v1.224l-4.25.5c-2.625.3-3.179,1.454-3.893,2.909l-.179.355a37.782,37.782,0,0,1-68.108-.021ZM87.071,42.582l-7.768-7.8v7.8H76.982V32.173h2.982L87.7,39.941V32.173H90V42.584Zm-15.947,0L69.964,40.72H62.34l-1.161,1.862H58.357l6.536-10.411h2.5l6.536,10.411Zm-7.589-3.829h5.231l-2.607-4.186ZM18.161,42.584V32.173h2.321V42.584Zm-8.053,0-7.786-7.8v7.8H0V32.173H2.982l7.733,7.768V32.173h2.321V42.584Zm32.643-.053V40.4h9.214a3.924,3.924,0,0,0,.485-.018,1,1,0,0,0,.857-.994.98.98,0,0,0-.911-1.029,3.033,3.033,0,0,0-.429-.018H46c-.2,0-.643,0-.964-.035a3.04,3.04,0,0,1,.036-6.012,6,6,0,0,1,.893-.053h8.982v2.091H46.107a2.561,2.561,0,0,0-.643.053.91.91,0,0,0-.679.887.893.893,0,0,0,.661.9,3.154,3.154,0,0,0,.679.053H52.25a7.066,7.066,0,0,1,.75.036,2.993,2.993,0,0,1,2.643,3.1,3.043,3.043,0,0,1-2.786,3.139c-.107.018-.661.018-.732.018Zm-17.465,0V40.4h9.232a3.766,3.766,0,0,0,.464-.018,1.021,1.021,0,0,0-.053-2.022,3.035,3.035,0,0,0-.429-.018H28.536c-.2,0-.643,0-.964-.035a3.04,3.04,0,0,1,.036-6.012,6,6,0,0,1,.893-.053h8.982v2.091H28.643a2.559,2.559,0,0,0-.643.053.91.91,0,0,0-.679.887.893.893,0,0,0,.661.9,3.155,3.155,0,0,0,.679.053h6.125a7.063,7.063,0,0,1,.75.036,2.993,2.993,0,0,1,2.643,3.1,3.044,3.044,0,0,1-2.786,3.139c-.107.018-.661.018-.732.018ZM2.643,26.407V25.185l4.25-.5c2.625-.3,3.179-1.454,3.893-2.908l.179-.355a37.789,37.789,0,0,1,68.107-.035l.179.355c.715,1.454,1.268,2.607,3.893,2.909l4.25.5v1.224H77.161l-.036-.106a34.064,34.064,0,0,0-64.214,0l-.053.142Z" transform="translate(529 2119.124)"/></g></svg>