<svg xmlns="http://www.w3.org/2000/svg" width="199" height="80" viewBox="0 0 199 80">
  <defs>
    <style>
      .cls-1 {
        fill: rgba(255,255,255,0);
      }

      .cls-2 {
        fill: #999;
      }
    </style>
  </defs>
  <g id="Group_7999" data-name="Group 7999" transform="translate(-38 -2116.125)">
    <rect id="Rectangle_3128" data-name="Rectangle 3128" class="cls-1" width="199" height="80" transform="translate(38 2116.125)"/>
    <g id="logo-coca-cola" transform="translate(76.367 2136.125)">
      <path id="Path_8655" data-name="Path 8655" class="cls-2" d="M26.575,3.781c.168-.575.29-1.49-.5-1.779,0,0-3.992-2.374-14.3,11.334,0,0-6.478,8.906-6.478,16.462,0,0-.215,7.5,8.474,7.071A51.9,51.9,0,0,0,24.777,34.6,53.634,53.634,0,0,1,38.27,32.444S46.1,31.957,52.951,40c0,0-10.309-6.694-14.41-.271,0,0-2.754-5.559-11.712-4.155,0,0-4.534.809-8.312,1.942,0,0-5.559,1.727-9.715,1.512,0,0-9.013,0-8.8-10.417,0,0-.108-11.766,12.736-22.776,0,0,7.124-6.53,12.523-5.774,0,0,3.669.378,2.535,4.425A6.606,6.606,0,0,1,25.614,7.76s-1.182.758-1.858-.3a2.42,2.42,0,0,1,.667-2.687s1.047-1.177,2.16-.989Z" transform="translate(0 0)"/>
      <path id="Path_8656" data-name="Path 8656" class="cls-2" d="M64.627,10.289c-2.332-1.378-7.12,1.51-10.828,6.682s-4.882,10.576-2.672,12.144c2.387,1.695,6.72-1.407,10.427-6.58s5.467-10.83,3.073-12.246Zm-2.8,9.606c-2.3,3.8-5.087,6.559-6.33,5.721-1.6-1.078.057-4.4,2.358-8.2s4.381-6.312,5.97-5.564c1.374.646.3,4.24-2,8.04Zm36.994-6.1,2.015-3.345H97.175l-2.015,3.345Zm25.863,14.03c1.708-3.7,2.1-6.944.387-7.954-2.323-1.37-7.044,1.587-10.674,6.837s-4.742,10.713-2.54,12.274c2.383,1.689,6.648-1.478,10.277-6.73a31.444,31.444,0,0,0,1.958-3.229,6.084,6.084,0,0,0,2.191-.3l.53-1.445a4.51,4.51,0,0,1-2.129.549Zm-.4-6.368c1.136.531.615,3.134-.881,6.211a4.141,4.141,0,0,1-1.738-.972,2.89,2.89,0,0,1-.273-3.835c1.064-1.234,2.028-1.809,2.892-1.4Zm-1.908,8.13c-2.244,3.853-4.986,6.662-6.223,5.827-1.594-1.074.139-4.443,2.384-8.3q.423-.728.867-1.444a5.467,5.467,0,0,0,3.4,3.144c-.139.255-.283.511-.434.77ZM144.531,7.16s6.925,1.467,14.906-6.807c0,0-6.456,12.323-17.664,10.153Z" transform="translate(-37.173 -0.262)"/>
      <path id="Path_8657" data-name="Path 8657" class="cls-2" d="M168.55,35.587c-.775-.026.157-1.76.157-1.76L176.53,20.1h-3.873l-.567,1a2.5,2.5,0,0,0-2.288-1.468c-4.871.059-11.855,11.972-11.855,11.972-2.993,4.7-4.166,4.166-4.166,4.166-2.055-.7,1.82-8.862,1.82-8.862,4.108-2.64,7.685-5.915,12.089-11.208,1.243-1.494,2.367-2.944,3.354-4.319a10.853,10.853,0,0,1-1.281.035c-7.316,9.663-12.9,13.116-12.9,13.116,6.483-13.82,14.17-20.3,14.17-20.3,2.79-2.5,3.115-1.916,3.115-1.916.58.631-1.236,3.941-1.236,3.941a12.04,12.04,0,0,0,1.5-.361c1.146-2.406,1.394-4.179.455-4.941-1.637-1.327-7.706,2.72-13.632,10.171-.2.258-.225.27-.424.526l-.2.234a55.568,55.568,0,0,0-7,10.579,54.7,54.7,0,0,0-4.758,11.724s-1.233,4.7,1.994,5.164c0,0,2.447.529,5.751-4.049-.586,4.323,2.093,4.05,2.093,4.05,2.23,0,5.046-3.15,5.046-3.15-.528,3.364,1.565,3.169,1.565,3.169,4.383.039,10.474-10.073,10.474-10.073h-1.319C169.924,36.093,168.55,35.587,168.55,35.587Zm-6.787-.039s-.979-.137.138-3.091a31.675,31.675,0,0,1,5.417-8.372s3.386-3.99,3.952-1.838a.239.239,0,0,1-.019.156l-5.007,8.607s-2.838,4.851-4.481,4.539ZM159.624,2.571s-6.2-4.106-11.715-.917c-2.691-3.348-9.874.992-9.874.992A46.317,46.317,0,0,0,124.2,16.013a38.954,38.954,0,0,0-5.035,9.083q-.313.749-.56,1.523c-.128.373-.188.583-.188.583,0,.025-.006.046-.009.068a19.779,19.779,0,0,0-.747,4.561c-.06,7.6,5.427,7.511,5.427,7.511a9.6,9.6,0,0,0,5.252-1.584A22.936,22.936,0,0,0,137.3,25.581c1.58-6.073-1.965-5.969-1.965-5.969-3.846-.07-6.422,3.828-6.422,3.828a18.753,18.753,0,0,0-3.027,8.405,13.947,13.947,0,0,1,5.063-3.881c1.723-6.769,4.456-6.352,4.456-6.352,1.025-.016,1.025,1.378,1.025,1.378.157,2.956-2.152,6.689-2.152,6.689-5.985,9.077-9.663,6.182-9.663,6.182-4.343-2.9,1.332-13.694,1.332-13.694C133.849,7.3,142.3,3.156,142.3,3.156a11.847,11.847,0,0,1,1.2-.58,3.953,3.953,0,0,1,3.092-.326,20.4,20.4,0,0,0-6.005,5.278c-2.719,3.6-4,7.058-1.939,8.412,1.177.775,3.119.061,5.134-1.934a16.424,16.424,0,0,0,3.371-4.761,12.96,12.96,0,0,0,1.409-6.369l.027-.023a5.449,5.449,0,0,1,3.817.368,25,25,0,0,1,4.27,2.24s4.646,3.034,5.462,3.411c0,0,2.468-2.679,2.971-3.139,0,0-4.729-2.763-5.482-3.161Zm-12.285.859c.1,5.441-4.165,9.481-4.165,9.481-2.7,2.785-3.818,1.937-3.818,1.937s-1.063-.567.031-2.943c0,0,2.636-5.9,7.932-8.579l.022-.01ZM112.2,25.171c-.82.761-1.408.557-1.408.557-.556-.208-.088-1.026-.088-1.026l8.186-14.229-3.859-.009-.389.694c-3.757-5.34-12.946,8.822-12.946,8.822-.82,1.173-2.757,3.432-2.757,3.432-4.578,5.076-6.192,2.993-6.192,2.993-1.964-1.643,2.2-8.332,2.2-8.332a22.477,22.477,0,0,1,4.707-5.531,2.113,2.113,0,0,1,2.274-.546c.635.432.191,1.3.191,1.3a2.928,2.928,0,0,0-2.757,2.668.985.985,0,0,0,.584,1.119,1.367,1.367,0,0,0,1.056-.064,5.9,5.9,0,0,0,2.361-3.433c.761-3.7-2.585-3.673-2.585-3.673-2.994-.217-6.94,4.353-6.94,4.353-4.681,5.089-8.056,2.585-8.056,2.585-2.278-1.593-.294-3.778-.294-3.778l-2.508,1.166.19,1.58A5.7,5.7,0,0,0,90.333,18.4s-2.994,4.3-2.587,7.864c0,0,.383,3.455,3.292,3.455a5.183,5.183,0,0,0,1.738-.223h0a5.543,5.543,0,0,0,1.769-.731,10.57,10.57,0,0,0,1.391-.909,27.177,27.177,0,0,0,3.6-3.242c-.218.7-1.1,3.809.225,4.642,0,0,2.142,1.994,6.307-2.554,0,0-.557,2.758,1.585,2.993,0,0,3.58.733,10.417-9.741h-1.32a36.206,36.206,0,0,1-4.55,5.222Zm-8.127.675c-.434-.23-.321-.881-.321-.881.35-2.522,3.783-7.54,3.783-7.54,5.46-8.009,6.368-4.988,6.368-4.988-1.614,2.964-5.722,9.8-5.722,9.8C105.433,26.724,104.077,25.846,104.077,25.846Z" transform="translate(-61.68 -0.287)"/>
    </g>
  </g>
</svg>
