<svg xmlns="http://www.w3.org/2000/svg" width="199" height="80" viewBox="0 0 199 80">
  <defs>
    <style>
      .cls-1 {
        fill: none;
      }

      .cls-2, .cls-3 {
        fill: #999;
      }

      .cls-3 {
        fill-rule: evenodd;
      }
    </style>
  </defs>
  <g id="linkedIn" transform="translate(4295 -11874)">
    <rect id="Rectangle_15566" data-name="Rectangle 15566" class="cls-1" width="199" height="80" transform="translate(-4295 11874)"/>
    <g id="b" transform="translate(-4252 11899)">
      <g id="c">
        <g id="Group_9842" data-name="Group 9842">
          <path id="Path_11810" data-name="Path 11810" class="cls-2" d="M190.78,25.98v-.01l-.01.021h.01Z" transform="translate(-91.462 -12.451)"/>
          <path id="Path_11811" data-name="Path 11811" class="cls-2" d="M.047,30.915l12.41-.031V26.818l-7.928.005L4.5,11.67,0,11.68Z" transform="translate(0 -5.595)"/>
          <path id="Path_11812" data-name="Path 11812" class="cls-3" d="M31.609,30.106l-.021-13.514-4.5.01.021,13.509h4.5M29.334,14.749a2.341,2.341,0,1,0,.016-4.669,2.341,2.341,0,1,0-.042,4.669h.031Z" transform="translate(-12.858 -4.833)"/>
          <path id="Path_11813" data-name="Path 11813" class="cls-3" d="M40,35.782h4.5l-.026-7.553a3.1,3.1,0,0,1,.161-1.1,2.443,2.443,0,0,1,2.3-1.645c1.624-.01,2.275,1.229,2.28,3.061l.016,7.225h4.5L53.7,28.01c-.01-4.17-2.228-6.1-5.18-6.08A4.53,4.53,0,0,0,44.431,24.2h.036V22.253l-4.5.016c.068,1.26.031,13.514.031,13.514" transform="translate(-19.163 -10.514)"/>
          <path id="Path_11814" data-name="Path 11814" class="cls-2" d="M74.338,11.52l-4.5.01.052,19.235,4.492-.016-.016-4.373,1.13-1.426,3.524,5.794,5.539-.016-5.94-8.371,5.164-5.726-5.409.01s-3.68,5.112-4.014,5.726L74.343,11.52" transform="translate(-33.484 -5.523)"/>
          <path id="Path_11815" data-name="Path 11815" class="cls-3" d="M108.637,29.453a11.836,11.836,0,0,0,.156-1.77c-.01-3.509-1.8-7.038-6.471-7.033-4.992.005-7.293,3.961-7.293,7.543.005,4.43,2.842,7.194,7.725,7.189a13.971,13.971,0,0,0,5.237-.9l-.6-2.967a12.172,12.172,0,0,1-3.982.6c-2.1.005-3.93-.843-4.092-2.691l9.318.026m-9.349-3.03a2.939,2.939,0,0,1,2.806-2.858,2.579,2.579,0,0,1,2.525,2.858Z" transform="translate(-45.561 -9.9)"/>
          <path id="Path_11816" data-name="Path 11816" class="cls-3" d="M133.217,11.375v6.408l-.047-.01a4.5,4.5,0,0,0-3.826-1.572c-3.451,0-6.5,2.775-6.445,7.512,0,4.378,2.764,7.231,6.2,7.225a5.106,5.106,0,0,0,4.508-2.379h.088l.172,2.046,4-.01c-.062-.947-.13-2.587-.13-4.211l-.021-15.013h-4.5m.026,12.988-.094.968a2.651,2.651,0,0,1-2.624,2.113c-1.864,0-3.077-1.489-3.087-3.857-.005-2.212,1.026-4.024,3.1-4.024a2.664,2.664,0,0,1,2.644,2.14l.047.807.01,1.858Z" transform="translate(-58.922 -5.451)"/>
          <path id="Path_11817" data-name="Path 11817" class="cls-2" d="M189.781,2.14A2.176,2.176,0,0,0,187.568,0L162.2.052a2.168,2.168,0,0,0-2.181,2.155l.052,25.648A2.169,2.169,0,0,0,162.264,30l25.357-.057a2.185,2.185,0,0,0,2.207-2.14l-.047-25.669Zm-25.19,22.972L164.57,11.6l4.477-.021.047,13.519-4.5.01ZM166.808,9.74h-.036a2.56,2.56,0,1,1,.031,0ZM180.79,25.086V17.845c-.005-1.817-.661-3.045-2.28-3.045a2.492,2.492,0,0,0-2.316,1.64,3.638,3.638,0,0,0-.156,1.1l.021,7.553h-4.487s.026-12.249-.026-13.514h4.492v1.936a4.41,4.41,0,0,1,4.05-2.264c2.957-.01,5.18,1.921,5.19,6.07l.016,7.762-4.5.01Z" transform="translate(-76.72)"/>
        </g>
      </g>
    </g>
  </g>
</svg>
